<svg xmlns="http://www.w3.org/2000/svg" viewBox="0 0 64 64" fill="none">
  <defs>
    <linearGradient id="bg" x1="8" y1="8" x2="56" y2="56" gradientUnits="userSpaceOnUse">
      <stop stop-color="#0F172A"/>
      <stop offset="1" stop-color="#1E293B"/>
    </linearGradient>
    <linearGradient id="accent" x1="16" y1="16" x2="48" y2="48" gradientUnits="userSpaceOnUse">
      <stop stop-color="#22D3EE"/>
      <stop offset="1" stop-color="#06B6D4"/>
    </linearGradient>
  </defs>

  <rect x="4" y="4" width="56" height="56" rx="14" fill="url(#bg)"/>

  <path d="M17 20.5C17 18.6 18.5 17 20.4 17H29.6C31.4 17 33.2 17.7 34.5 19L35.2 19.7C36 20.5 37 21 38.1 21H44.6C46.5 21 48 22.6 48 24.5V44.5C48 46.4 46.5 48 44.6 48H38.2C36.3 48 34.5 47.3 33.2 46L32.5 45.3C31.7 44.5 30.7 44 29.6 44H20.4C18.5 44 17 42.4 17 40.5V20.5Z" stroke="url(#accent)" stroke-width="3"/>

  <path d="M32 20V44" stroke="#E2E8F0" stroke-width="2.5" stroke-linecap="round"/>
  <circle cx="39" cy="30" r="2.3" fill="#22D3EE"/>
  <circle cx="42.5" cy="36" r="1.8" fill="#67E8F9"/>
  <circle cx="36" cy="36.5" r="1.5" fill="#A5F3FC"/>
</svg>
